<svg width="500" height="500" viewBox="0 0 500 500" fill="none" xmlns="http://www.w3.org/2000/svg">
<path d="M31.25 189.583C31.25 134.161 31.25 106.451 42.0358 85.2822C51.5233 66.662 66.662 51.5233 85.2822 42.0358C106.451 31.25 134.161 31.25 189.583 31.25H310.417C365.839 31.25 393.549 31.25 414.718 42.0358C433.338 51.5233 448.477 66.662 457.964 85.2822C468.75 106.451 468.75 134.161 468.75 189.583V310.417C468.75 365.839 468.75 393.549 457.964 414.718C448.477 433.338 433.338 448.477 414.718 457.964C393.549 468.75 365.839 468.75 310.417 468.75H189.583C134.161 468.75 106.451 468.75 85.2822 457.964C66.662 448.477 51.5233 433.338 42.0358 414.718C31.25 393.549 31.25 365.839 31.25 310.417V189.583Z" fill="#330000"/>
<path d="M243.256 306.192H175.46L161.666 350.14C161.283 351.773 159.78 352.929 158.144 352.849H123.806C121.848 352.849 121.163 351.745 121.752 349.538L180.449 176.153C181.037 174.347 181.624 172.29 182.211 169.982C182.978 165.966 183.371 161.884 183.385 157.792C183.216 156.583 184.279 155.515 185.439 155.684H232.103C233.47 155.684 234.253 156.186 234.451 157.19L301.074 349.839C301.661 351.847 301.074 352.851 299.313 352.849H261.159C259.82 353.001 258.543 352.084 258.224 350.742L243.256 306.192ZM186.026 268.264H232.397C224.778 242.23 216.18 216.538 209.212 190.301C201.693 216.582 193.49 242.757 186.026 268.264Z" fill="#FF9A00"/>
<path d="M340.691 187.591C337.698 187.714 334.713 187.188 331.931 186.047C329.15 184.906 326.634 183.175 324.549 180.969C322.47 178.666 320.856 175.965 319.798 173.021C318.74 170.076 318.26 166.946 318.385 163.811C318.279 160.706 318.812 157.614 319.95 154.735C321.088 151.856 322.805 149.256 324.989 147.104C327.152 144.975 329.706 143.306 332.502 142.196C335.298 141.085 338.28 140.554 341.278 140.633C348.322 140.633 353.85 142.79 357.86 147.104C359.885 149.347 361.458 151.976 362.491 154.843C363.523 157.71 363.994 160.757 363.876 163.811C363.999 166.958 363.504 170.099 362.42 173.047C361.336 175.994 359.686 178.688 357.567 180.969C355.352 183.208 352.709 184.952 349.805 186.092C346.901 187.232 343.797 187.742 340.691 187.591ZM320.44 349.838V205.953C320.44 204.147 321.22 203.243 322.788 203.243H358.888C360.451 203.243 361.234 204.146 361.236 205.953V349.838C361.236 351.846 360.453 352.85 358.888 352.848H323.082C321.321 352.848 320.44 351.845 320.44 349.838Z" fill="#FF9A00"/>
</svg>
