<svg width="500" height="500" viewBox="0 0 500 500" fill="none" xmlns="http://www.w3.org/2000/svg">
<path d="M31.25 189.583C31.25 134.161 31.25 106.451 42.0358 85.2822C51.5233 66.662 66.662 51.5233 85.2822 42.0358C106.451 31.25 134.161 31.25 189.583 31.25H310.417C365.839 31.25 393.549 31.25 414.718 42.0358C433.338 51.5233 448.477 66.662 457.964 85.2822C468.75 106.451 468.75 134.161 468.75 189.583V310.417C468.75 365.839 468.75 393.549 457.964 414.718C448.477 433.338 433.338 448.477 414.718 457.964C393.549 468.75 365.839 468.75 310.417 468.75H189.583C134.161 468.75 106.451 468.75 85.2822 457.964C66.662 448.477 51.5233 433.338 42.0358 414.718C31.25 393.549 31.25 365.839 31.25 310.417V189.583Z" fill="#001E36"/>
<path d="M125 351.816V159.428C125 158.12 125.547 157.372 126.823 157.372C145.661 157.372 164.49 156.25 183.333 156.25C213.909 156.25 247.015 166.705 258.62 198.691C261.354 206.544 262.813 214.583 262.813 222.997C262.813 239.076 259.167 252.35 251.875 262.821C231.506 292.068 196.203 291.613 164.557 291.613V351.629C164.805 353.406 163.291 354.247 161.823 354.247H127.188C125.729 354.247 125 353.499 125 351.816ZM164.74 193.456V256.277C177.287 257.196 190.418 257.296 202.474 253.285C215.784 249.446 223.073 237.924 223.073 224.119C223.443 212.355 217.033 201.067 206.12 196.822C194.209 191.869 177.597 191.572 164.74 193.456Z" fill="#31A8FF"/>
<path d="M376.51 243.865C370.995 240.959 365.12 238.832 359.048 237.544C351.244 235.707 320.465 229.277 320.454 245.37C320.727 254.355 334.989 258.757 341.291 261.324C363.414 268.919 388.448 282.496 387.956 309.787C388.633 343.763 355.714 357.345 327.497 357.348C312.807 357.5 297.504 355.225 284.061 348.919C282.777 348.24 281.951 346.787 282.006 345.307V312.797C281.862 311.494 283.26 310.355 284.354 311.292C297.526 319.259 313.14 323.126 328.378 323.333C335.104 323.333 348.436 322.681 348.335 312.797C348.335 303.313 332.387 298.952 326.03 296.542C316.814 293.253 308.077 288.696 300.056 282.997C288.847 275.002 281.815 262.182 282.006 248.079C281.941 216.089 312.242 201.73 339.531 201.723C352.288 201.618 365.987 202.563 377.862 207.743C379.57 208.246 379.924 210.045 379.917 211.656V242.059C380.025 243.946 377.929 244.589 376.51 243.865Z" fill="#31A8FF"/>
</svg>
