<svg width="500" height="500" viewBox="0 0 500 500" fill="none" xmlns="http://www.w3.org/2000/svg">
<path d="M250.64 26.0417C129.49 26.0417 31.25 126.749 31.25 250.984C31.25 350.369 94.1118 434.687 181.282 464.431C192.247 466.513 196.272 459.551 196.272 453.609C196.272 448.246 196.069 430.526 195.974 411.73C134.939 425.338 122.06 385.19 122.06 385.19C112.081 359.19 97.7012 352.276 97.7012 352.276C77.796 338.316 99.2016 338.602 99.2016 338.602C121.232 340.189 132.832 361.783 132.832 361.783C152.4 396.171 184.156 386.229 196.675 380.482C198.644 365.943 204.33 356.02 210.604 350.403C161.874 344.714 110.649 325.427 110.649 239.236C110.649 214.677 119.219 194.61 133.253 178.858C130.975 173.192 123.466 150.313 135.379 119.329C135.379 119.329 153.802 113.284 195.727 142.387C213.227 137.403 231.995 134.903 250.64 134.818C269.284 134.903 288.067 137.403 305.6 142.387C347.474 113.284 365.871 119.329 365.871 119.329C377.812 150.313 370.3 173.192 368.022 178.858C382.088 194.61 390.601 214.677 390.601 239.236C390.601 325.632 339.278 344.655 290.425 350.224C298.293 357.204 305.305 370.894 305.305 391.88C305.305 421.977 305.051 446.201 305.051 453.609C305.051 459.596 309 466.61 320.121 464.401C407.244 434.624 470.025 350.335 470.025 250.984C470.025 126.749 371.8 26.0417 250.64 26.0417Z" fill="#161514"/>
</svg>
