<svg width="500" height="500" viewBox="0 0 500 500" fill="none" xmlns="http://www.w3.org/2000/svg">
<path d="M435.293 215.669L434.755 214.293L382.641 78.2869C381.581 75.6212 379.703 73.3599 377.278 71.8275C374.852 70.321 372.021 69.5955 369.169 69.7488C366.317 69.9021 363.58 70.9269 361.329 72.6847C359.103 74.4931 357.488 76.9434 356.704 79.7023L321.516 187.359H179.031L143.843 79.7023C143.08 76.9284 141.461 74.4658 139.218 72.6648C136.966 70.9069 134.23 69.8822 131.378 69.7289C128.526 69.5756 125.695 70.3011 123.268 71.8075C120.849 73.3462 118.973 75.6055 117.906 78.2669L65.6921 214.213L65.1738 215.589C57.6718 235.191 56.7458 256.7 62.5354 276.874C68.325 297.047 80.5164 314.792 97.2714 327.432L97.4508 327.572L97.9293 327.911L177.316 387.361L216.591 417.086L240.515 435.149C243.313 437.273 246.73 438.424 250.243 438.424C253.757 438.424 257.174 437.273 259.972 435.149L283.896 417.086L323.171 387.361L403.036 327.552L403.236 327.392C419.953 314.75 432.116 297.023 437.897 276.877C443.678 256.73 442.764 235.252 435.293 215.669Z" fill="#E24329"/>
<path d="M435.294 215.669L434.755 214.293C409.362 219.505 385.434 230.261 364.679 245.793L250.224 332.336C289.2 361.822 323.131 387.441 323.131 387.441L402.997 327.631L403.196 327.472C419.937 314.83 432.119 297.092 437.908 276.928C443.697 256.764 442.779 235.266 435.294 215.669Z" fill="#FC6D26"/>
<path d="M177.317 387.441L216.591 417.166L240.515 435.228C243.313 437.353 246.73 438.503 250.244 438.503C253.758 438.503 257.175 437.353 259.973 435.228L283.897 417.166L323.171 387.441C323.171 387.441 289.2 361.743 250.224 332.336C211.248 361.743 177.317 387.441 177.317 387.441Z" fill="#FCA326"/>
<path d="M135.749 245.793C115.011 230.229 91.0872 219.445 65.6921 214.213L65.1738 215.589C57.6718 235.191 56.7458 256.7 62.5354 276.874C68.325 297.047 80.5164 314.792 97.2714 327.432L97.4508 327.572L97.9293 327.911L177.316 387.361C177.316 387.361 211.208 361.743 250.224 332.257L135.749 245.793Z" fill="#FC6D26"/>
</svg>
