<svg width="500" height="500" viewBox="0 0 500 500" fill="none" xmlns="http://www.w3.org/2000/svg">
<path d="M291.858 249.624C291.858 227.211 273.118 209.04 250 209.04C226.884 209.04 208.142 227.211 208.142 249.624C208.142 272.039 226.884 290.209 250 290.209C273.118 290.209 291.858 272.039 291.858 249.624Z" fill="#53C1DE"/>
<path fill-rule="evenodd" clip-rule="evenodd" d="M385.943 174.277C394.783 139.45 405.894 74.8669 366.725 52.9713C327.739 31.1711 277.007 72.9441 250.218 98.0185C223.507 73.194 171.349 31.5995 132.213 53.5646C93.2423 75.4379 105.26 138.95 114.295 173.995C77.9424 184.006 15.625 205.569 15.625 249.624C15.625 293.553 77.8775 317.012 114.015 327.014C104.947 362.253 93.5306 424.858 132.551 446.682C171.832 468.643 223.829 428.039 250.865 402.691C277.826 427.912 328.072 468.782 367.065 446.897C406.182 424.942 395.993 361.225 386.958 325.976C421.988 315.953 484.375 293.005 484.375 249.624C484.375 205.992 421.724 184.254 385.943 174.277ZM381.504 307.296C375.571 289.087 367.563 269.723 357.767 249.72C367.117 230.189 374.813 211.075 380.581 192.983C406.811 200.356 464.352 217.208 464.352 249.624C464.352 282.343 409.135 299.355 381.504 307.296ZM357.031 430.094C327.938 446.422 284.721 407.338 264.81 388.764C278.018 374.757 291.219 358.472 304.101 340.39C326.763 338.441 348.172 335.253 367.588 330.902C373.947 355.834 386.253 413.692 357.031 430.094ZM142.557 429.861C113.46 413.594 126.759 357.729 133.431 331.771C152.63 335.888 173.884 338.851 196.6 340.637C209.568 358.331 223.15 374.596 236.837 388.838C219.926 404.699 171.789 446.203 142.557 429.861ZM35.6483 249.624C35.6483 216.781 92.8448 200.052 119.673 192.697C125.539 211.196 133.234 230.537 142.519 250.096C133.113 269.947 125.309 289.596 119.388 308.312C93.8077 301.213 35.6483 282.487 35.6483 249.624ZM142.245 70.3678C171.461 53.9713 216.792 93.9035 236.186 111.877C222.569 126.055 209.111 142.197 196.255 159.789C174.21 161.77 153.105 164.952 133.705 169.214C126.426 140.949 113.061 86.7467 142.245 70.3678ZM318.426 180.892C333.383 182.722 347.712 185.156 361.167 188.135C357.128 200.688 352.093 213.815 346.164 227.271C337.569 211.457 328.342 195.963 318.426 180.892ZM250.224 125.752C259.46 135.453 268.71 146.286 277.809 158.039C259.352 157.193 240.864 157.189 222.407 158.027C231.514 146.383 240.843 135.565 250.224 125.752ZM154.008 227.257C148.176 213.847 143.187 200.662 139.113 187.93C152.487 185.028 166.75 182.656 181.609 180.856C171.666 195.893 162.455 211.382 154.008 227.257ZM182.037 319.777C166.685 318.116 152.207 315.865 138.837 313.043C142.976 300.085 148.075 286.617 154.031 272.92C162.594 288.958 171.945 304.597 182.037 319.777ZM250.778 374.867C241.287 364.937 231.821 353.955 222.575 342.142C241.138 342.849 259.737 342.85 278.296 342.047C269.169 354.075 259.951 365.074 250.778 374.867ZM346.355 272.222C352.62 286.068 357.902 299.464 362.097 312.202C348.504 315.209 333.831 317.631 318.37 319.429C328.36 304.074 337.732 288.338 346.355 272.222ZM292.926 321.782C264.533 323.749 235.962 323.728 207.559 321.943C191.42 299.085 177.054 275.046 164.652 250.09C176.993 225.186 191.256 201.194 207.319 178.372C235.743 176.288 264.341 176.284 292.764 178.384C308.689 201.205 322.93 225.134 335.557 249.815C323.079 274.707 308.743 298.747 292.926 321.782ZM356.724 69.7906C385.947 86.1334 372.939 144.176 366.555 169.415C347.108 165.064 325.99 161.826 303.879 159.815C290.999 142.032 277.653 125.862 264.256 111.867C283.899 93.5064 327.783 53.6076 356.724 69.7906Z" fill="#53C1DE"/>
</svg>
