<svg width="500" height="500" viewBox="0 0 500 500" fill="none" xmlns="http://www.w3.org/2000/svg">
<path d="M500 250.692C499.859 299.896 485.204 347.964 457.872 388.876C430.539 429.788 391.744 461.725 346.345 480.688C300.947 499.65 250.963 504.794 202.655 495.475C154.346 486.157 109.861 462.79 74.7702 428.302C39.6796 393.815 15.5441 349.739 5.3864 301.595C-4.77124 253.451 -0.499349 203.38 17.667 157.654C35.8334 111.927 67.0866 72.5775 107.512 44.5337C147.938 16.4899 195.738 0.99854 244.927 0V43.4827C204.343 44.4802 164.952 57.4181 131.679 80.6793C98.4057 103.941 72.7254 136.493 57.8475 174.269C42.9696 212.045 39.5542 253.369 48.0279 293.075C56.5017 332.782 76.4889 369.11 105.492 397.519C134.494 425.929 171.226 445.16 211.095 452.808C250.965 460.457 292.205 456.184 329.66 440.523C367.115 424.863 399.125 398.51 421.688 364.758C444.251 331.005 456.367 291.351 456.522 250.75L500 250.692Z" fill="#086EB5"/>
<path d="M443.478 250.011C443.46 278.899 436.975 307.417 424.498 333.472C412.021 359.526 393.869 382.456 371.375 400.578C348.88 418.701 322.614 431.556 294.503 438.201C266.392 444.846 237.15 445.111 208.924 438.978C180.697 432.845 154.201 420.469 131.381 402.758C108.561 385.047 89.9959 362.451 77.0479 336.628C64.0999 310.804 57.0977 282.409 56.5551 253.526C56.0125 224.643 61.9433 196.005 73.9122 169.713C134.666 116.084 188.26 110.924 236.231 143.435L214.492 273.883L258.782 280.449L246.739 330.411H231.347L255.072 369.864L289.855 330.411H271.681L311.203 245.663L263.768 240.546L289.855 181.453C335.956 208.355 379.637 197.31 421.739 160.712C436.086 188.287 443.545 218.926 443.478 250.011Z" fill="#0AB1E8"/>
<path d="M499.826 0.304379V240.546H456.348C453.967 188.322 431.871 138.945 394.517 102.375C357.162 65.8046 307.33 44.7639 255.072 43.4972V0.304379H499.826Z" fill="#A9E819"/>
</svg>
