<svg width="500" height="500" viewBox="0 0 500 500" fill="none" xmlns="http://www.w3.org/2000/svg">
<path fill-rule="evenodd" clip-rule="evenodd" d="M282.517 26.1562C292.924 29.4367 300.001 39.0879 300.001 49.9996V175L400.001 175C409.323 175 417.87 180.186 422.175 188.454C426.48 196.723 425.827 206.699 420.482 214.336L245.482 464.336C239.224 473.275 227.892 477.124 217.485 473.843C207.078 470.563 200.001 460.911 200.001 450L200.001 325H100.001C90.6789 325 82.1313 319.813 77.8263 311.545C73.5214 303.277 74.1743 293.3 79.52 285.663L254.52 35.6631C260.777 26.7238 272.11 22.8757 282.517 26.1562Z" fill="#FCA326"/>
<path fill-rule="evenodd" clip-rule="evenodd" d="M110.504 241.401L79.52 285.663C74.1743 293.3 73.5214 303.277 77.8263 311.545C82.1313 319.813 90.6789 325 100.001 325H200.001L200.001 450C200.001 460.911 207.078 470.562 217.485 473.843C227.892 477.124 239.224 473.275 245.482 464.336L264.659 436.94C263.781 436.757 262.906 436.528 262.036 436.253C250.886 432.722 243.304 422.334 243.304 410.589L243.304 276.041H136.161C126.173 276.041 117.015 270.459 112.402 261.559C109.131 255.246 108.532 248.009 110.504 241.401Z" fill="#FC6D26"/>
</svg>
