<svg width="500" height="500" viewBox="0 0 500 500" fill="none" xmlns="http://www.w3.org/2000/svg">
<path fill-rule="evenodd" clip-rule="evenodd" d="M293.92 50.8376C300.851 52.6781 306.657 57.406 309.864 63.8198C321.953 87.9979 330.975 102.672 340.053 114.57C349.241 126.613 358.96 136.472 373.745 151.257C407.911 185.423 425.001 230.253 425.001 275.001C425.001 319.749 407.911 364.578 373.745 398.744C305.403 467.086 194.599 467.086 126.257 398.744C92.0914 364.578 75.001 319.749 75.001 275.001C75.0009 230.253 92.0912 185.423 126.257 151.257C133.407 144.107 144.16 141.968 153.502 145.838C162.844 149.707 168.935 158.823 168.935 168.935C168.935 196.93 170.683 218.261 178.871 235.276C183.374 244.632 190.397 253.779 202.502 261.941C205.393 235.422 210.689 203.112 217.845 172.444C223.479 148.299 230.486 124.193 238.826 104.092C242.997 94.0371 247.715 84.4635 253.072 76.1977C258.287 68.1519 264.987 59.9645 273.636 54.1989C279.602 50.2212 286.989 48.9971 293.92 50.8376ZM303.034 378.033C273.745 407.322 226.257 407.322 196.968 378.033C182.323 363.388 175.001 344.194 175.001 325C175.001 325 196.968 337.5 237.502 337.5C237.502 312.5 250.002 237.5 268.752 225C281.252 250 288.389 257.323 303.034 271.967C317.679 286.612 325.001 305.806 325.001 325C325.001 344.194 317.679 363.388 303.034 378.033Z" fill="#FCA326"/>
<path d="M75.6732 259.642C75.225 264.752 75.001 269.877 75.001 275.001C75.001 319.748 92.0914 364.578 126.257 398.744C194.599 467.086 305.403 467.086 373.745 398.744C407.911 364.578 425.001 319.748 425.001 275.001C425.001 269.876 424.777 264.751 424.329 259.64C415.932 273.784 405.699 287.125 393.631 299.309C372.6 320.543 348.104 336.147 321.98 346.121C318.563 357.804 312.248 368.819 303.034 378.033C273.745 407.322 226.257 407.322 196.968 378.033C187.754 368.819 181.439 357.804 178.022 346.122C151.898 336.147 127.401 320.543 106.369 299.309C94.3017 287.126 84.0696 273.785 75.6732 259.642Z" fill="#FC6D26"/>
</svg>
