<svg width="265" height="129" viewBox="0 0 265 129" fill="none" xmlns="http://www.w3.org/2000/svg">
<rect y="39" width="254" height="85" rx="18" fill="#E2E8F1"/>
<mask id="mask0_2340_229" style="mask-type:alpha" maskUnits="userSpaceOnUse" x="38" y="21" width="96" height="121">
<path fill-rule="evenodd" clip-rule="evenodd" d="M94.7599 21.3108C97.5636 22.191 99.4701 24.7804 99.4701 27.7081V61.246L126.41 61.246C128.922 61.246 131.224 62.6375 132.384 64.856C133.544 67.0744 133.368 69.7512 131.928 71.8001L84.7826 138.876C83.0969 141.274 80.0439 142.307 77.2403 141.427C74.4366 140.547 72.5301 137.957 72.5301 135.029L72.5301 101.492H45.59C43.0787 101.492 40.776 100.1 39.6162 97.8816C38.4564 95.6632 38.6323 92.9864 40.0725 90.9374L87.2176 23.8615C88.9034 21.4631 91.9563 20.4306 94.7599 21.3108Z" fill="#FCA326"/>
</mask>
<g mask="url(#mask0_2340_229)">
<rect y="39.0001" width="254" height="85" fill="#EDF2FB"/>
</g>
<path d="M29.592 80.536C29.1547 80.536 28.7013 80.52 28.232 80.488C27.7733 80.456 27.3573 80.4133 26.984 80.36V77.928C27.3573 77.9707 27.7733 78.008 28.232 78.04C28.6907 78.0827 29.112 78.104 29.496 78.104C30.1573 78.104 30.696 78.0347 31.112 77.896C31.5387 77.7573 31.8533 77.544 32.056 77.256C32.2587 76.968 32.36 76.6 32.36 76.152V74.36L32.808 73.4C32.7867 74.1467 32.6427 74.7973 32.376 75.352C32.1093 75.896 31.7253 76.3173 31.224 76.616C30.7333 76.9147 30.136 77.064 29.432 77.064C28.8347 77.064 28.296 76.9573 27.816 76.744C27.336 76.5307 26.9253 76.232 26.584 75.848C26.2533 75.4533 25.9973 74.9893 25.816 74.456C25.6347 73.9227 25.544 73.3413 25.544 72.712V72.328C25.544 71.6987 25.64 71.1173 25.832 70.584C26.024 70.04 26.3013 69.5707 26.664 69.176C27.0267 68.7707 27.4533 68.4613 27.944 68.248C28.4453 68.024 29 67.912 29.608 67.912C30.312 67.912 30.92 68.072 31.432 68.392C31.944 68.7013 32.344 69.1547 32.632 69.752C32.92 70.3493 33.0747 71.0747 33.096 71.928L32.776 72.04V68.168H35.08V75.96C35.08 77.048 34.8773 77.928 34.472 78.6C34.0667 79.272 33.4533 79.7627 32.632 80.072C31.8213 80.3813 30.808 80.536 29.592 80.536ZM30.408 74.664C30.76 74.664 31.0747 74.584 31.352 74.424C31.64 74.264 31.8693 74.0347 32.04 73.736C32.2107 73.4267 32.296 73.0587 32.296 72.632V72.248C32.296 71.832 32.2053 71.48 32.024 71.192C31.8533 70.904 31.624 70.6853 31.336 70.536C31.048 70.3867 30.7387 70.312 30.408 70.312C30.024 70.312 29.6827 70.4027 29.384 70.584C29.096 70.7653 28.8667 71.0213 28.696 71.352C28.536 71.6827 28.456 72.072 28.456 72.52C28.456 72.968 28.536 73.352 28.696 73.672C28.8667 73.992 29.096 74.2373 29.384 74.408C29.6827 74.5787 30.024 74.664 30.408 74.664ZM41.2469 77.32C40.5002 77.32 39.8389 77.192 39.2629 76.936C38.6869 76.68 38.2015 76.3333 37.8069 75.896C37.4122 75.4587 37.1082 74.968 36.8949 74.424C36.6922 73.88 36.5909 73.32 36.5909 72.744V72.424C36.5909 71.8267 36.6922 71.256 36.8949 70.712C37.1082 70.1573 37.4069 69.6667 37.7909 69.24C38.1855 68.8133 38.6655 68.4773 39.2309 68.232C39.7962 67.976 40.4362 67.848 41.1509 67.848C42.1002 67.848 42.9055 68.0613 43.5669 68.488C44.2282 68.9147 44.7349 69.48 45.0869 70.184C45.4389 70.8773 45.6149 71.6347 45.6149 72.456V73.384H37.8069V71.816H43.9349L42.9269 72.52C42.9269 72.0187 42.8575 71.5973 42.7189 71.256C42.5909 70.904 42.3935 70.6373 42.1269 70.456C41.8709 70.2747 41.5455 70.184 41.1509 70.184C40.7669 70.184 40.4309 70.2747 40.1429 70.456C39.8655 70.6267 39.6522 70.8933 39.5029 71.256C39.3535 71.608 39.2789 72.056 39.2789 72.6C39.2789 73.0907 39.3482 73.5173 39.4869 73.88C39.6255 74.232 39.8389 74.504 40.1269 74.696C40.4149 74.888 40.7882 74.984 41.2469 74.984C41.6522 74.984 41.9829 74.9147 42.2389 74.776C42.5055 74.6373 42.6922 74.4507 42.7989 74.216H45.4549C45.3269 74.8133 45.0709 75.3467 44.6869 75.816C44.3135 76.2853 43.8335 76.6533 43.2469 76.92C42.6709 77.1867 42.0042 77.32 41.2469 77.32ZM51.3578 77.128C50.3978 77.128 49.6298 77.0107 49.0538 76.776C48.4884 76.5413 48.0778 76.152 47.8218 75.608C47.5658 75.064 47.4378 74.328 47.4378 73.4L47.4538 65.864H50.1418L50.1258 73.48C50.1258 73.8747 50.2271 74.1787 50.4298 74.392C50.6431 74.5947 50.9471 74.696 51.3418 74.696H52.5578V77.128H51.3578ZM46.1578 70.28V68.168H52.5578V70.28H46.1578ZM57.3841 77V68.168H59.6881V71.976H59.5601C59.5601 71.0587 59.6721 70.3013 59.8961 69.704C60.1308 69.096 60.4721 68.6427 60.9201 68.344C61.3681 68.0347 61.9175 67.88 62.5681 67.88H62.6961C63.3575 67.88 63.9068 68.0347 64.3441 68.344C64.7921 68.6427 65.1281 69.096 65.3521 69.704C65.5868 70.3013 65.7041 71.0587 65.7041 71.976H65.0321C65.0321 71.0587 65.1441 70.3013 65.3681 69.704C65.6028 69.096 65.9441 68.6427 66.3921 68.344C66.8401 68.0347 67.3895 67.88 68.0401 67.88H68.1681C68.8295 67.88 69.3841 68.0347 69.8321 68.344C70.2908 68.6427 70.6375 69.096 70.8721 69.704C71.1175 70.3013 71.2401 71.0587 71.2401 71.976V77H68.3281V71.896C68.3281 71.4907 68.2161 71.1547 67.9921 70.888C67.7788 70.6107 67.4695 70.472 67.0641 70.472C66.6588 70.472 66.3388 70.6107 66.1041 70.888C65.8801 71.1547 65.7681 71.5013 65.7681 71.928V77H62.8561V71.896C62.8561 71.4907 62.7441 71.1547 62.5201 70.888C62.3068 70.6107 61.9975 70.472 61.5921 70.472C61.1868 70.472 60.8668 70.6107 60.6321 70.888C60.4081 71.1547 60.2961 71.5013 60.2961 71.928V77H57.3841ZM73.1981 80.52V78.088H75.2301C75.4755 78.088 75.6835 78.056 75.8541 77.992C76.0248 77.928 76.1635 77.8213 76.2701 77.672C76.3768 77.5333 76.4568 77.336 76.5101 77.08L78.4941 68.168H81.2461L78.9261 77.64C78.7555 78.3653 78.5155 78.936 78.2061 79.352C77.9075 79.7787 77.4915 80.0773 76.9581 80.248C76.4355 80.4293 75.7528 80.52 74.9101 80.52H73.1981ZM75.9981 76.808V74.568H77.8541V76.808H75.9981ZM74.6541 76.808L72.0781 68.168H74.9901L77.4061 76.808H74.6541ZM85.6341 77V68.168H87.9381V72.008H87.9061C87.9061 70.7707 88.1621 69.8 88.6741 69.096C89.1968 68.392 89.9435 68.04 90.9141 68.04H91.2661V70.536H90.5941C89.9435 70.536 89.4368 70.712 89.0741 71.064C88.7221 71.416 88.5461 71.9227 88.5461 72.584V77H85.6341ZM96.5281 77.32C95.7815 77.32 95.1201 77.192 94.5441 76.936C93.9681 76.68 93.4828 76.3333 93.0881 75.896C92.6935 75.4587 92.3895 74.968 92.1761 74.424C91.9735 73.88 91.8721 73.32 91.8721 72.744V72.424C91.8721 71.8267 91.9735 71.256 92.1761 70.712C92.3895 70.1573 92.6881 69.6667 93.0721 69.24C93.4668 68.8133 93.9468 68.4773 94.5121 68.232C95.0775 67.976 95.7175 67.848 96.4321 67.848C97.3815 67.848 98.1868 68.0613 98.8481 68.488C99.5095 68.9147 100.016 69.48 100.368 70.184C100.72 70.8773 100.896 71.6347 100.896 72.456V73.384H93.0881V71.816H99.2161L98.2081 72.52C98.2081 72.0187 98.1388 71.5973 98.0001 71.256C97.8721 70.904 97.6748 70.6373 97.4081 70.456C97.1521 70.2747 96.8268 70.184 96.4321 70.184C96.0481 70.184 95.7121 70.2747 95.4241 70.456C95.1468 70.6267 94.9335 70.8933 94.7841 71.256C94.6348 71.608 94.5601 72.056 94.5601 72.6C94.5601 73.0907 94.6295 73.5173 94.7681 73.88C94.9068 74.232 95.1201 74.504 95.4081 74.696C95.6961 74.888 96.0695 74.984 96.5281 74.984C96.9335 74.984 97.2641 74.9147 97.5201 74.776C97.7868 74.6373 97.9735 74.4507 98.0801 74.216H100.736C100.608 74.8133 100.352 75.3467 99.9681 75.816C99.5948 76.2853 99.1148 76.6533 98.5281 76.92C97.9521 77.1867 97.2855 77.32 96.5281 77.32ZM105.935 77.288C104.655 77.288 103.647 77.0267 102.911 76.504C102.175 75.9707 101.78 75.224 101.727 74.264H104.287C104.33 74.5307 104.495 74.76 104.783 74.952C105.071 75.144 105.476 75.24 105.999 75.24C106.372 75.24 106.692 75.1867 106.959 75.08C107.236 74.9627 107.375 74.776 107.375 74.52C107.375 74.296 107.268 74.1147 107.055 73.976C106.842 73.8267 106.452 73.7253 105.887 73.672L105.279 73.608C104.148 73.4907 103.316 73.1813 102.783 72.68C102.25 72.1787 101.983 71.5493 101.983 70.792C101.983 70.1413 102.143 69.608 102.463 69.192C102.783 68.7653 103.226 68.4453 103.791 68.232C104.356 68.0187 105.002 67.912 105.727 67.912C106.911 67.912 107.866 68.1733 108.591 68.696C109.316 69.208 109.7 69.9493 109.743 70.92H107.183C107.14 70.6533 106.996 70.4293 106.751 70.248C106.506 70.056 106.154 69.96 105.695 69.96C105.364 69.96 105.092 70.0187 104.879 70.136C104.676 70.2533 104.575 70.4187 104.575 70.632C104.575 70.856 104.671 71.0213 104.863 71.128C105.066 71.2347 105.386 71.3147 105.823 71.368L106.431 71.432C107.562 71.5493 108.431 71.864 109.039 72.376C109.658 72.8773 109.967 73.5387 109.967 74.36C109.967 74.968 109.802 75.4907 109.471 75.928C109.151 76.3653 108.687 76.7013 108.079 76.936C107.482 77.1707 106.767 77.288 105.935 77.288ZM114.375 77.288C113.373 77.288 112.594 76.9627 112.039 76.312C111.495 75.6507 111.223 74.6427 111.223 73.288V68.168H114.135V73.368C114.135 73.7627 114.253 74.0827 114.487 74.328C114.722 74.5733 115.037 74.696 115.431 74.696C115.826 74.696 116.146 74.5733 116.391 74.328C116.637 74.0827 116.759 73.752 116.759 73.336V68.168H119.671V77H117.367V73.288H117.527C117.527 74.1947 117.41 74.9467 117.175 75.544C116.951 76.1307 116.615 76.568 116.167 76.856C115.719 77.144 115.165 77.288 114.503 77.288H114.375ZM121.822 77V68.168H124.126V71.976H123.998C123.998 71.0587 124.11 70.3013 124.334 69.704C124.568 69.096 124.91 68.6427 125.358 68.344C125.806 68.0347 126.355 67.88 127.006 67.88H127.134C127.795 67.88 128.344 68.0347 128.782 68.344C129.23 68.6427 129.566 69.096 129.79 69.704C130.024 70.3013 130.142 71.0587 130.142 71.976H129.47C129.47 71.0587 129.582 70.3013 129.806 69.704C130.04 69.096 130.382 68.6427 130.83 68.344C131.278 68.0347 131.827 67.88 132.478 67.88H132.606C133.267 67.88 133.822 68.0347 134.27 68.344C134.728 68.6427 135.075 69.096 135.31 69.704C135.555 70.3013 135.678 71.0587 135.678 71.976V77H132.766V71.896C132.766 71.4907 132.654 71.1547 132.43 70.888C132.216 70.6107 131.907 70.472 131.502 70.472C131.096 70.472 130.776 70.6107 130.542 70.888C130.318 71.1547 130.206 71.5013 130.206 71.928V77H127.294V71.896C127.294 71.4907 127.182 71.1547 126.958 70.888C126.744 70.6107 126.435 70.472 126.03 70.472C125.624 70.472 125.304 70.6107 125.07 70.888C124.846 71.1547 124.734 71.5013 124.734 71.928V77H121.822ZM141.778 77.32C141.031 77.32 140.37 77.192 139.794 76.936C139.218 76.68 138.733 76.3333 138.338 75.896C137.943 75.4587 137.639 74.968 137.426 74.424C137.223 73.88 137.122 73.32 137.122 72.744V72.424C137.122 71.8267 137.223 71.256 137.426 70.712C137.639 70.1573 137.938 69.6667 138.322 69.24C138.717 68.8133 139.197 68.4773 139.762 68.232C140.327 67.976 140.967 67.848 141.682 67.848C142.631 67.848 143.437 68.0613 144.098 68.488C144.759 68.9147 145.266 69.48 145.618 70.184C145.97 70.8773 146.146 71.6347 146.146 72.456V73.384H138.338V71.816H144.466L143.458 72.52C143.458 72.0187 143.389 71.5973 143.25 71.256C143.122 70.904 142.925 70.6373 142.658 70.456C142.402 70.2747 142.077 70.184 141.682 70.184C141.298 70.184 140.962 70.2747 140.674 70.456C140.397 70.6267 140.183 70.8933 140.034 71.256C139.885 71.608 139.81 72.056 139.81 72.6C139.81 73.0907 139.879 73.5173 140.018 73.88C140.157 74.232 140.37 74.504 140.658 74.696C140.946 74.888 141.319 74.984 141.778 74.984C142.183 74.984 142.514 74.9147 142.77 74.776C143.037 74.6373 143.223 74.4507 143.33 74.216H145.986C145.858 74.8133 145.602 75.3467 145.218 75.816C144.845 76.2853 144.365 76.6533 143.778 76.92C143.202 77.1867 142.535 77.32 141.778 77.32ZM33.48 97L29.144 92.296C28.6533 91.7627 28.2587 91.2933 27.96 90.888C27.672 90.4827 27.4587 90.088 27.32 89.704C27.192 89.32 27.128 88.8987 27.128 88.44C27.128 87.8 27.272 87.2347 27.56 86.744C27.8587 86.2533 28.3173 85.8693 28.936 85.592C29.5547 85.304 30.3547 85.16 31.336 85.16C31.7413 85.16 32.1413 85.1813 32.536 85.224C32.9413 85.256 33.2933 85.2987 33.592 85.352V87.72C33.3787 87.688 33.1227 87.656 32.824 87.624C32.5253 87.592 32.2267 87.5707 31.928 87.56C31.64 87.5387 31.4 87.528 31.208 87.528C30.6213 87.528 30.2373 87.624 30.056 87.816C29.8747 88.008 29.784 88.2693 29.784 88.6C29.784 88.9307 29.864 89.256 30.024 89.576C30.1947 89.896 30.4667 90.264 30.84 90.68L36.664 97H33.48ZM29.704 97.352C28.8293 97.352 28.0613 97.1813 27.4 96.84C26.7493 96.488 26.2373 96.0133 25.864 95.416C25.5013 94.8187 25.32 94.152 25.32 93.416V93.208C25.32 92.4293 25.5387 91.736 25.976 91.128C26.4133 90.5093 26.9893 90.0507 27.704 89.752L28.824 91.192C28.6 91.3627 28.4027 91.6133 28.232 91.944C28.0613 92.264 27.976 92.6533 27.976 93.112C27.976 93.4533 28.04 93.768 28.168 94.056C28.296 94.344 28.4987 94.5733 28.776 94.744C29.064 94.904 29.4373 94.984 29.896 94.984C30.472 94.984 31.016 94.8347 31.528 94.536C32.04 94.2267 32.456 93.736 32.776 93.064C33.096 92.3813 33.256 91.48 33.256 90.36H35.784C35.784 91.512 35.6133 92.5253 35.272 93.4C34.9413 94.264 34.488 94.9893 33.912 95.576C33.336 96.1627 32.6853 96.6053 31.96 96.904C31.2347 97.2027 30.4827 97.352 29.704 97.352ZM31.864 90.728V88.648H36.536V90.728H31.864ZM41.2435 100.2V88.168H43.5475V91.976H43.2915C43.3235 91.112 43.4942 90.376 43.8035 89.768C44.1235 89.16 44.5555 88.7013 45.0995 88.392C45.6435 88.072 46.2675 87.912 46.9715 87.912C47.5795 87.912 48.1288 88.024 48.6195 88.248C49.1102 88.4613 49.5315 88.7707 49.8835 89.176C50.2355 89.5707 50.5022 90.04 50.6835 90.584C50.8755 91.128 50.9715 91.7253 50.9715 92.376V92.76C50.9715 93.4107 50.8862 94.0133 50.7155 94.568C50.5448 95.112 50.2888 95.592 49.9475 96.008C49.6062 96.4133 49.1848 96.728 48.6835 96.952C48.1928 97.176 47.6275 97.288 46.9875 97.288C46.3048 97.288 45.7022 97.1547 45.1795 96.888C44.6568 96.6107 44.2408 96.2 43.9315 95.656C43.6328 95.1013 43.4728 94.408 43.4515 93.576L44.1555 94.44V100.2H41.2435ZM46.1075 94.888C46.4915 94.888 46.8275 94.792 47.1155 94.6C47.4142 94.3973 47.6435 94.12 47.8035 93.768C47.9742 93.416 48.0595 93.016 48.0595 92.568C48.0595 92.1093 47.9742 91.7147 47.8035 91.384C47.6435 91.0427 47.4195 90.7813 47.1315 90.6C46.8435 90.408 46.5022 90.312 46.1075 90.312C45.7555 90.312 45.4248 90.392 45.1155 90.552C44.8168 90.712 44.5715 90.9467 44.3795 91.256C44.1875 91.5653 44.0915 91.9387 44.0915 92.376V92.92C44.0915 93.336 44.1928 93.6933 44.3955 93.992C44.5982 94.28 44.8542 94.504 45.1635 94.664C45.4728 94.8133 45.7875 94.888 46.1075 94.888ZM56.9716 97.32C56.193 97.32 55.4996 97.2027 54.8916 96.968C54.2836 96.7333 53.7663 96.408 53.3396 95.992C52.9236 95.576 52.6036 95.096 52.3796 94.552C52.1663 94.008 52.0596 93.4267 52.0596 92.808V92.424C52.0596 91.784 52.1716 91.1867 52.3956 90.632C52.6303 90.0773 52.961 89.592 53.3876 89.176C53.8143 88.76 54.3316 88.4347 54.9396 88.2C55.5476 87.9653 56.225 87.848 56.9716 87.848C57.729 87.848 58.4063 87.9653 59.0036 88.2C59.6116 88.4347 60.129 88.76 60.5556 89.176C60.9823 89.592 61.3076 90.0773 61.5316 90.632C61.7663 91.1867 61.8836 91.784 61.8836 92.424V92.808C61.8836 93.4267 61.7716 94.008 61.5476 94.552C61.3343 95.096 61.0143 95.576 60.5876 95.992C60.1716 96.408 59.6596 96.7333 59.0516 96.968C58.4436 97.2027 57.7503 97.32 56.9716 97.32ZM56.9716 94.888C57.4196 94.888 57.7876 94.792 58.0756 94.6C58.3743 94.408 58.5983 94.1413 58.7476 93.8C58.897 93.448 58.9716 93.0533 58.9716 92.616C58.9716 92.1573 58.8916 91.7573 58.7316 91.416C58.5823 91.064 58.3583 90.7867 58.0596 90.584C57.761 90.3813 57.3983 90.28 56.9716 90.28C56.545 90.28 56.1823 90.3813 55.8836 90.584C55.585 90.7867 55.3556 91.064 55.1956 91.416C55.0463 91.7573 54.9716 92.1573 54.9716 92.616C54.9716 93.0533 55.0463 93.448 55.1956 93.8C55.345 94.1413 55.569 94.408 55.8676 94.6C56.1663 94.792 56.5343 94.888 56.9716 94.888ZM63.4779 97V88.168H65.7819V92.008H65.7499C65.7499 90.7707 66.0059 89.8 66.5179 89.096C67.0405 88.392 67.7872 88.04 68.7579 88.04H69.1099V90.536H68.4379C67.7872 90.536 67.2805 90.712 66.9179 91.064C66.5659 91.416 66.3899 91.9227 66.3899 92.584V97H63.4779ZM74.6859 97.128C73.7259 97.128 72.9579 97.0107 72.3819 96.776C71.8165 96.5413 71.4059 96.152 71.1499 95.608C70.8939 95.064 70.7659 94.328 70.7659 93.4L70.7819 85.864H73.4699L73.4539 93.48C73.4539 93.8747 73.5552 94.1787 73.7579 94.392C73.9712 94.5947 74.2752 94.696 74.6699 94.696H75.8859V97.128H74.6859ZM69.4859 90.28V88.168H75.8859V90.28H69.4859ZM77.6386 97V88.2C77.6386 87.1653 77.9373 86.3973 78.5346 85.896C79.132 85.384 80.0173 85.128 81.1906 85.128H82.3266V87.272H81.1266C80.8706 87.272 80.6733 87.3413 80.5346 87.48C80.396 87.6187 80.3266 87.816 80.3266 88.072V97H77.6386ZM76.6466 90.472V88.36H82.4546V90.472H76.6466ZM87.9404 97.32C87.1617 97.32 86.4684 97.2027 85.8604 96.968C85.2524 96.7333 84.735 96.408 84.3084 95.992C83.8924 95.576 83.5724 95.096 83.3484 94.552C83.135 94.008 83.0284 93.4267 83.0284 92.808V92.424C83.0284 91.784 83.1404 91.1867 83.3644 90.632C83.599 90.0773 83.9297 89.592 84.3564 89.176C84.783 88.76 85.3004 88.4347 85.9084 88.2C86.5164 87.9653 87.1937 87.848 87.9404 87.848C88.6977 87.848 89.375 87.9653 89.9724 88.2C90.5804 88.4347 91.0977 88.76 91.5244 89.176C91.951 89.592 92.2764 90.0773 92.5004 90.632C92.735 91.1867 92.8524 91.784 92.8524 92.424V92.808C92.8524 93.4267 92.7404 94.008 92.5164 94.552C92.303 95.096 91.983 95.576 91.5564 95.992C91.1404 96.408 90.6284 96.7333 90.0204 96.968C89.4124 97.2027 88.719 97.32 87.9404 97.32ZM87.9404 94.888C88.3884 94.888 88.7564 94.792 89.0444 94.6C89.343 94.408 89.567 94.1413 89.7164 93.8C89.8657 93.448 89.9404 93.0533 89.9404 92.616C89.9404 92.1573 89.8604 91.7573 89.7004 91.416C89.551 91.064 89.327 90.7867 89.0284 90.584C88.7297 90.3813 88.367 90.28 87.9404 90.28C87.5137 90.28 87.151 90.3813 86.8524 90.584C86.5537 90.7867 86.3244 91.064 86.1644 91.416C86.015 91.7573 85.9404 92.1573 85.9404 92.616C85.9404 93.0533 86.015 93.448 86.1644 93.8C86.3137 94.1413 86.5377 94.408 86.8364 94.6C87.135 94.792 87.503 94.888 87.9404 94.888ZM94.5746 97V85.32H97.4866V97H94.5746ZM93.5826 87.432V85.32H97.4866V87.432H93.5826ZM100.05 97V88.168H102.962V97H100.05ZM98.9301 90.28V88.168H102.962V90.28H98.9301ZM101.25 87.464C100.717 87.464 100.322 87.3307 100.066 87.064C99.8208 86.7867 99.6981 86.4347 99.6981 86.008C99.6981 85.5813 99.8208 85.2347 100.066 84.968C100.322 84.6907 100.711 84.552 101.234 84.552C101.767 84.552 102.157 84.6907 102.402 84.968C102.647 85.2347 102.77 85.5813 102.77 86.008C102.77 86.4347 102.647 86.7867 102.402 87.064C102.157 87.3307 101.773 87.464 101.25 87.464ZM109.503 97.32C108.724 97.32 108.031 97.2027 107.423 96.968C106.815 96.7333 106.298 96.408 105.871 95.992C105.455 95.576 105.135 95.096 104.911 94.552C104.698 94.008 104.591 93.4267 104.591 92.808V92.424C104.591 91.784 104.703 91.1867 104.927 90.632C105.162 90.0773 105.492 89.592 105.919 89.176C106.346 88.76 106.863 88.4347 107.471 88.2C108.079 87.9653 108.756 87.848 109.503 87.848C110.26 87.848 110.938 87.9653 111.535 88.2C112.143 88.4347 112.66 88.76 113.087 89.176C113.514 89.592 113.839 90.0773 114.063 90.632C114.298 91.1867 114.415 91.784 114.415 92.424V92.808C114.415 93.4267 114.303 94.008 114.079 94.552C113.866 95.096 113.546 95.576 113.119 95.992C112.703 96.408 112.191 96.7333 111.583 96.968C110.975 97.2027 110.282 97.32 109.503 97.32ZM109.503 94.888C109.951 94.888 110.319 94.792 110.607 94.6C110.906 94.408 111.13 94.1413 111.279 93.8C111.428 93.448 111.503 93.0533 111.503 92.616C111.503 92.1573 111.423 91.7573 111.263 91.416C111.114 91.064 110.89 90.7867 110.591 90.584C110.292 90.3813 109.93 90.28 109.503 90.28C109.076 90.28 108.714 90.3813 108.415 90.584C108.116 90.7867 107.887 91.064 107.727 91.416C107.578 91.7573 107.503 92.1573 107.503 92.616C107.503 93.0533 107.578 93.448 107.727 93.8C107.876 94.1413 108.1 94.408 108.399 94.6C108.698 94.792 109.066 94.888 109.503 94.888Z" fill="black"/>
<g clip-path="url(#clip0_2340_229)">
<path fill-rule="evenodd" clip-rule="evenodd" d="M190.974 18.3247C185.363 16.8213 179.596 20.1508 178.093 25.7613L161.761 86.713C160.258 92.3235 163.587 98.0903 169.198 99.5936L209.832 110.482C215.443 111.985 221.209 108.655 222.713 103.045L234.398 59.4351C235.12 56.7409 234.742 53.8702 233.347 51.4546L220.652 29.466C219.258 27.0504 216.96 25.2878 214.266 24.5659L190.974 18.3247ZM208.204 55.6055C208.956 52.8003 207.291 49.9169 204.486 49.1652C201.681 48.4135 198.797 50.0783 198.046 52.8835L193.165 71.0968L188.358 62.7702C186.906 60.2551 183.69 59.3934 181.175 60.8455C178.66 62.2975 177.798 65.5136 179.25 68.0287L190.405 87.3496C191.857 89.8647 195.073 90.7264 197.588 89.2743L216.909 78.1194C219.424 76.6673 220.286 73.4513 218.834 70.9362C217.382 68.4211 214.166 67.5594 211.651 69.0114L203.324 73.8188L208.204 55.6055Z" fill="black"/>
</g>
<defs>
<clipPath id="clip0_2340_229">
<rect width="105.17" height="105.17" fill="white" transform="translate(163.22) rotate(15)"/>
</clipPath>
</defs>
</svg>
