<svg width="1430" height="649" viewBox="0 0 1430 649" fill="none" xmlns="http://www.w3.org/2000/svg">
<path d="M366.173 525.014C364.451 525.072 362.735 524.796 361.129 524.203C359.524 523.609 358.064 522.711 356.839 521.563C354.495 519.142 353.195 515.977 353.196 512.692V192.626C353.119 190.99 353.402 189.358 354.027 187.831C354.651 186.304 355.604 184.917 356.824 183.758C358.044 182.598 359.505 181.691 361.114 181.094C362.723 180.497 364.446 180.223 366.173 180.29H434.72C436.444 180.224 438.164 180.497 439.771 181.092C441.379 181.687 442.838 182.591 444.058 183.748C445.277 184.905 446.231 186.288 446.857 187.811C447.483 189.335 447.77 190.964 447.697 192.598V450.656H605.01C606.777 450.609 608.533 450.939 610.148 451.62C611.764 452.301 613.197 453.317 614.344 454.592C615.557 455.757 616.506 457.145 617.133 458.67C617.759 460.196 618.05 461.827 617.987 463.462V512.692C617.988 515.977 616.688 519.142 614.344 521.563C613.119 522.711 611.659 523.609 610.053 524.203C608.448 524.796 606.732 525.072 605.01 525.014H366.173Z" fill="black"/>
<path d="M696.003 529.506C677.365 529.506 660.628 526.236 645.794 519.695C632.029 513.383 620.131 503.936 611.167 492.199C602.592 480.914 598.055 467.326 598.219 453.422C598.219 430.186 608.231 411.86 628.255 398.445C648.268 384.697 674.835 375.37 707.957 370.464L772.695 361.137V354.278C772.695 342.498 770.105 333.494 764.926 327.267C759.747 321.039 750.257 317.931 736.457 317.94C726.801 317.94 718.867 319.742 712.654 323.345C706.675 326.995 701.816 332.071 698.563 338.063C697.163 340.089 695.237 341.739 692.97 342.856C690.702 343.972 688.169 344.517 685.615 344.438H627.667C626.069 344.533 624.466 344.322 622.955 343.818C621.444 343.313 620.057 342.524 618.875 341.5C617.879 340.44 617.132 339.19 616.686 337.835C616.239 336.48 616.103 335.051 616.286 333.642C616.286 327.757 618.529 321.049 623.015 313.519C627.843 305.666 635.09 297.974 644.755 290.444C654.421 282.914 666.836 276.696 682.002 271.79C697.208 266.885 715.675 264.432 737.405 264.432C759.486 264.432 778.466 266.889 794.344 271.805C810.222 276.72 823.165 283.589 833.171 292.412C843.026 301.022 850.492 311.797 854.911 323.787C859.885 336.333 862.341 349.648 862.153 363.049V512.336C862.136 513.997 861.759 515.637 861.047 517.156C860.335 518.674 859.302 520.038 858.013 521.163C856.874 522.277 855.507 523.157 853.994 523.748C852.481 524.34 850.856 524.63 849.22 524.6H789.165C787.447 524.655 785.735 524.375 784.135 523.779C782.534 523.183 781.08 522.283 779.861 521.135C777.535 518.723 776.246 515.574 776.248 512.307V495.151C771.303 501.812 765.193 507.624 758.181 512.336C750.005 517.836 740.903 521.983 731.263 524.6C719.897 528.072 708.002 529.73 696.063 529.506H696.003ZM720.393 473.545C729.734 473.696 738.972 471.673 747.296 467.655C755.649 463.342 762.355 456.645 766.462 448.516C771.289 439.674 773.703 428.708 773.703 415.616V408.756L729.697 416.115C713.487 418.72 701.584 422.808 693.986 428.38C686.749 433.628 683.126 439.85 683.116 447.048C682.972 452.237 684.811 457.301 688.295 461.309C691.948 465.374 696.558 468.569 701.754 470.636C707.746 472.612 714.049 473.605 720.393 473.574" fill="black"/>
<path d="M1043.55 529.506C1024.64 529.506 1008.66 526.397 995.602 520.179C983.319 514.534 972.429 506.502 963.64 496.606V512.293C963.621 513.955 963.246 515.596 962.537 517.116C961.828 518.636 960.8 520.003 959.515 521.135C958.381 522.247 957.018 523.125 955.511 523.717C954.004 524.308 952.384 524.599 950.753 524.572H892.489C890.775 524.631 889.066 524.357 887.468 523.766C885.87 523.175 884.418 522.279 883.2 521.135C880.886 518.712 879.603 515.561 879.602 512.293V188.091C879.539 186.463 879.825 184.84 880.443 183.32C881.062 181.801 882 180.415 883.2 179.249C884.418 178.105 885.87 177.209 887.468 176.618C889.066 176.027 890.775 175.753 892.489 175.812H955.39C957.102 175.751 958.809 176.025 960.404 176.616C962 177.208 963.45 178.104 964.664 179.249C965.869 180.413 966.811 181.797 967.432 183.317C968.053 184.838 968.341 186.462 968.277 188.091V293.225C977.221 284.475 987.884 277.465 999.667 272.589C1012.04 267.018 1026.65 264.232 1043.49 264.232C1060.69 264.232 1075.81 267.018 1088.87 272.589C1101.98 277.626 1113.64 285.539 1122.89 295.678C1132.65 306.277 1140.02 318.645 1144.56 332.03C1149.92 347.254 1152.88 363.148 1153.32 379.192C1153.67 385.743 1153.84 391.638 1153.83 396.876C1153.83 401.782 1153.66 407.515 1153.32 414.075C1152.93 430.763 1149.98 447.308 1144.56 463.191C1139.81 476.593 1132.27 488.955 1122.38 499.543C1113.13 509.352 1101.68 517.075 1088.87 522.148C1075.82 527.053 1060.7 529.506 1043.49 529.506H1043.55ZM1015.66 463.69C1027.34 463.69 1036.45 461.394 1042.98 456.802C1049.59 452.128 1054.46 445.594 1056.91 438.134C1060.11 429.763 1062.02 420.997 1062.57 412.107C1063.26 401.964 1063.26 391.789 1062.57 381.645C1062.02 372.751 1060.11 363.98 1056.91 355.604C1054.46 348.148 1049.58 341.614 1042.98 336.936C1036.49 332.334 1027.4 330.034 1015.72 330.034C1005.06 330.034 996.29 332.325 989.414 336.908C982.609 341.1 977.238 347.075 973.953 354.107C970.456 361.192 968.525 368.879 968.277 376.697C967.926 382.934 967.755 388.995 967.765 394.88C967.775 400.765 967.946 406.988 968.277 413.548C968.871 421.955 970.784 430.232 973.953 438.106C976.966 445.546 982.151 452.021 988.903 456.774C995.778 461.366 1004.72 463.662 1015.72 463.662" fill="black"/>
<path d="M1277.11 529.506C1254.63 529.506 1235.44 527.22 1219.53 522.647C1203.97 517.722 1191.17 511.827 1181.14 504.963C1171.47 498.089 1164.21 491.053 1159.36 483.856C1154.51 476.326 1151.92 469.78 1151.57 464.218C1151.35 462.577 1151.56 460.908 1152.2 459.365C1152.83 457.822 1153.87 456.455 1155.2 455.39C1157.59 453.243 1160.74 452.018 1164.03 451.953H1223.16C1224.05 451.923 1224.94 452.089 1225.75 452.438C1226.94 452.857 1228 453.531 1228.87 454.406C1233.7 456.896 1238.24 459.855 1242.42 463.234C1247.25 466.704 1252.46 469.669 1257.97 472.076C1264.67 474.85 1271.93 476.19 1279.24 475.998C1288.93 475.998 1297.05 474.201 1303.62 470.607C1310.19 466.671 1313.48 461.271 1313.48 454.406C1313.72 449.72 1312.05 445.125 1308.81 441.571C1305.7 437.958 1299.3 434.521 1289.62 431.26C1280.28 427.98 1266.11 424.705 1247.09 421.434C1230.79 418.06 1214.96 412.955 1199.87 406.217C1186.38 399.667 1176.01 391.324 1168.75 381.189C1161.49 370.731 1157.85 358.128 1157.85 343.382C1157.85 330.29 1162.37 317.693 1171.4 305.59C1180.44 293.487 1193.58 283.665 1210.83 276.126C1228.06 268.33 1249.45 264.432 1275.03 264.432C1294.75 264.432 1312.04 266.723 1326.91 271.306C1341.76 275.565 1354.21 281.132 1364.26 288.006C1374.31 294.88 1381.91 301.915 1387.08 309.112C1392.26 316.319 1395.03 322.865 1395.38 328.75C1395.56 330.347 1395.37 331.962 1394.83 333.485C1394.3 335.008 1393.42 336.404 1392.26 337.578C1391.2 338.659 1389.92 339.521 1388.49 340.113C1387.07 340.704 1385.52 341.011 1383.97 341.015H1330.02C1328.62 341.015 1327.23 340.853 1325.87 340.53C1324.62 339.949 1323.4 339.291 1322.24 338.562C1317.78 336.411 1313.6 333.774 1309.79 330.704C1305.32 327.24 1300.45 324.278 1295.26 321.876C1289.73 319.252 1282.82 317.94 1274.52 317.94C1265.18 317.94 1257.92 319.903 1252.73 323.83C1250.26 325.605 1248.26 327.911 1246.91 330.559C1245.55 333.207 1244.88 336.12 1244.95 339.061C1244.95 343.311 1246.41 347.445 1249.1 350.841C1252.2 354.435 1258.26 357.705 1267.26 360.653C1276.57 363.6 1290.92 366.875 1310.3 370.479C1334.16 374.072 1353.18 379.962 1367.36 388.148C1381.54 396.002 1391.58 405.328 1397.47 416.129C1403.61 426.294 1406.83 437.805 1406.81 449.515C1407.02 464.648 1401.7 479.386 1391.75 491.229C1381.71 503.351 1367.02 512.859 1347.67 519.752C1328.65 526.293 1305.13 529.563 1277.12 529.563" fill="black"/>
<path d="M1279.15 119.494C1290.91 119.494 1302.41 122.797 1312.18 128.985C1321.96 135.174 1329.58 143.969 1334.08 154.26C1338.58 164.551 1339.76 175.874 1337.46 186.799C1335.17 197.724 1329.51 207.759 1321.19 215.635C1312.88 223.511 1302.28 228.875 1290.75 231.048C1279.22 233.221 1267.26 232.105 1256.4 227.843C1245.54 223.58 1236.25 216.362 1229.72 207.1C1223.19 197.839 1219.7 186.951 1219.7 175.812C1219.7 160.876 1225.96 146.551 1237.11 135.989C1248.26 125.428 1263.38 119.494 1279.15 119.494" fill="#207EF6"/>
<path d="M220.769 309.754L158.094 404.435L20.2035 180.404H143.13L220.769 309.754Z" fill="#207EF6"/>
<path d="M421.35 180.404L283.46 404.435L220.77 309.754L298.424 180.404H421.35Z" fill="#207EF6"/>
<path d="M283.46 404.435H158.094L220.769 309.754L283.46 404.435Z" fill="#275CA0"/>
<path d="M283.46 404.435V518.525C283.456 520.26 282.726 521.923 281.431 523.15C280.136 524.377 278.381 525.068 276.549 525.071H165.005C163.173 525.068 161.418 524.377 160.123 523.15C158.828 521.923 158.098 520.26 158.094 518.525V404.435H283.46Z" fill="#207EF6"/>
</svg>
